HIERARCHY
ROOT reference
{
	OFFSET 0.000000 0.000000 0.000000
	CHANNELS 6 Xposition Yposition Zposition Xrotation Yrotation Zrotation
	JOINT root
	{
		OFFSET 0.000000 89.869698 0.000000
		CHANNELS 3 Xrotation Yrotation Zrotation
		JOINT Hips
		{
			OFFSET 0.000000 0.000000 0.000000
			CHANNELS 3 Xrotation Yrotation Zrotation
			JOINT Spine
			{
				OFFSET 0.026469 -0.105484 0.013598
				CHANNELS 3 Xrotation Yrotation Zrotation
				JOINT Spine1
				{
					OFFSET -4.853540 17.193398 -5.027490
					CHANNELS 3 Xrotation Yrotation Zrotation
					JOINT Spine2
					{
						OFFSET -3.457121 17.043396 -6.489560
						CHANNELS 3 Xrotation Yrotation Zrotation
						JOINT Neck
						{
							OFFSET -5.140712 15.586197 -8.669379
							CHANNELS 3 Xrotation Yrotation Zrotation
							JOINT Head
							{
								OFFSET -4.152531 8.554855 -6.523951
								CHANNELS 3 Xrotation Yrotation Zrotation
								End Site
								{
									OFFSET 0.000000 0.100006 0.000000
								}
							}
						}
						JOINT RightShoulder
						{
							OFFSET -3.299612 14.542206 -11.633702
							CHANNELS 3 Xrotation Yrotation Zrotation
							JOINT RightArm
							{
								OFFSET 5.333388 -8.032135 -12.870300
								CHANNELS 3 Xrotation Yrotation Zrotation
								JOINT RightForeArm
								{
									OFFSET 0.595374 -13.786201 -25.966301
									CHANNELS 3 Xrotation Yrotation Zrotation
									JOINT RightHand
									{
										OFFSET -13.516901 -1.519997 -20.889801
										CHANNELS 3 Xrotation Yrotation Zrotation
										End Site
										{
											OFFSET 0.000000 0.099998 0.000000
										}
									}
								}
							}
						}
						JOINT LeftShoulder
						{
							OFFSET -6.992710 16.618195 -5.713737
							CHANNELS 3 Xrotation Yrotation Zrotation
							JOINT LeftArm
							{
								OFFSET -6.718698 3.247299 14.245000
								CHANNELS 3 Xrotation Yrotation Zrotation
								JOINT LeftForeArm
								{
									OFFSET 8.817404 -14.592697 23.957703
									CHANNELS 3 Xrotation Yrotation Zrotation
									JOINT LeftHand
									{
										OFFSET -10.526400 -21.311096 7.512060
										CHANNELS 3 Xrotation Yrotation Zrotation
										End Site
										{
											OFFSET 0.000000 0.099998 0.000000
										}
									}
								}
							}
						}
					}
				}
			}
			JOINT RightUpLeg
			{
				OFFSET 4.593220 -0.383102 -8.373450
				CHANNELS 3 Xrotation Yrotation Zrotation
				JOINT RightLeg
				{
					OFFSET -10.211304 -39.045300 -19.959999
					CHANNELS 3 Xrotation Yrotation Zrotation
					JOINT RightFoot
					{
						OFFSET 4.846859 -40.874802 -1.152790
						CHANNELS 3 Xrotation Yrotation Zrotation
						JOINT RightToe
						{
							OFFSET -9.736701 -6.853460 -13.504299
							CHANNELS 3 Xrotation Yrotation Zrotation
							End Site
							{
								OFFSET 0.000000 0.100000 0.000000
							}
						}
					}
				}
			}
			JOINT LeftUpLeg
			{
				OFFSET -4.593220 0.383102 8.373440
				CHANNELS 3 Xrotation Yrotation Zrotation
				JOINT LeftLeg
				{
					OFFSET -5.424988 -42.686401 13.252899
					CHANNELS 3 Xrotation Yrotation Zrotation
					JOINT LeftFoot
					{
						OFFSET 11.095201 -37.689201 12.328602
						CHANNELS 3 Xrotation Yrotation Zrotation
						JOINT LeftToe
						{
							OFFSET -16.356800 -7.519040 -0.239304
							CHANNELS 3 Xrotation Yrotation Zrotation
							End Site
							{
								OFFSET 0.000000 0.100000 0.000000
							}
						}
					}
				}
			}
		}
	}
}
MOTION
Frames: 11
Frame Time: 0.041667
0.000000 0.000000 0.000000 -0.000000 0.000000 -0.000000 -14.429780 22.742319 8.536908 -0.143786 -0.052891 -0.076500 1.246109 2.603505 1.066256 -1.523876 3.466507 -0.691685 -1.058802 2.276729 -0.741563 0.912618 -2.398736 0.104161 2.100071 -4.272049 0.339768 6.883056 2.218591 1.324099 -13.719734 23.605964 11.012083 1.244053 1.787297 -0.945663 11.705278 41.465966 20.835270 3.453621 0.887538 1.601976 -17.168293 11.731267 -34.159087 27.348638 -31.084768 -20.729388 12.528471 13.025773 -7.542767 14.543827 -14.294064 -8.048261 -19.399523 -5.425656 14.961768 23.029818 -1.050369 -9.113934 0.658542 -0.019976 0.838476 6.018798 -12.266454 -1.460009 -0.407498 -6.702828 -21.283308 18.098943 11.703699 16.440714 -0.000001 0.000002 0.000003 
0.000000 0.000000 0.000000 -0.000000 0.000000 -0.000000 -13.887095 22.972887 8.165608 -0.121440 -0.044650 -0.064612 1.200421 2.239436 1.131734 -1.533626 2.983140 -0.514947 -1.062690 1.963007 -0.586126 0.724734 -2.161643 0.455853 1.496313 -3.982005 0.832952 6.214210 2.397813 0.965437 -13.983741 20.486767 10.275229 3.293101 4.592718 -2.536921 9.651661 40.564312 22.647804 3.445401 1.636628 1.262447 -14.480221 12.073118 -31.294513 25.980523 -29.132878 -19.893054 11.274376 11.462176 -6.348450 13.932340 -15.809173 -8.688970 -21.155169 -6.189857 16.269922 25.801294 -0.608485 -9.465160 0.562828 -0.017673 0.716619 4.669495 -12.981364 -1.493388 -0.405517 -6.703361 -21.256653 17.418188 11.878378 17.049573 0.095359 0.006835 0.074524 
0.000000 0.000000 0.000000 -0.000000 0.000000 -0.000000 -12.634702 22.042316 7.306784 -0.099373 -0.036605 -0.052866 1.164835 1.850495 1.094466 -1.414473 2.458779 -0.417328 -0.978334 1.617052 -0.479563 0.399311 -2.382733 0.288517 1.097031 -4.376187 0.269047 5.915140 1.923180 1.130557 -13.564084 17.317216 9.125954 5.785036 7.776605 -4.522004 6.862102 39.479200 25.850632 3.179807 1.481669 1.178862 -12.671401 11.374653 -27.802113 24.528804 -27.092452 -18.970195 10.151292 9.443669 -4.420403 12.098125 -16.374521 -8.348293 -20.511905 -5.904460 15.791828 26.042415 0.284122 -9.326786 0.466347 -0.015130 0.593768 3.410559 -13.416471 -0.624415 -0.410095 -6.703549 -21.286887 15.293593 11.761461 17.770404 -1.798059 -0.053595 -1.213151 
0.000000 0.000000 0.000000 -0.000000 0.000000 -0.000000 -10.843871 19.675367 6.026702 -0.077685 -0.028607 -0.041321 1.211373 1.464579 0.957329 -1.086282 1.929788 -0.406171 -0.751239 1.263686 -0.428788 0.227299 -2.384182 0.427411 0.733095 -4.427255 0.351619 5.960026 1.064208 1.639740 -13.075663 14.296142 7.707415 8.270878 10.711719 -6.549140 4.785172 37.129991 27.495830 2.597456 1.128215 0.999795 -12.121928 10.146249 -25.129306 23.202402 -25.259925 -18.097706 9.179270 8.390578 -3.586400 9.617416 -15.682119 -7.409983 -18.193168 -4.927434 14.056939 24.134757 1.448407 -8.492261 0.372184 -0.012475 0.473886 1.691780 -13.232469 0.861823 -0.410112 -6.703988 -21.279564 15.535342 13.203334 18.996175 -2.929400 -0.077252 -4.652257 
0.000000 0.000000 0.000000 -0.000000 0.000000 -0.000000 -9.185395 18.148702 5.380721 -0.614195 -0.224038 -0.327444 1.177229 1.381433 0.862585 -0.924261 1.645995 -0.388572 -0.638925 1.074799 -0.394014 0.146127 -2.338861 0.556867 0.516644 -4.390508 0.500098 5.847168 0.716160 1.791669 -12.550075 12.443457 6.944908 9.304473 11.863807 -7.404160 3.939496 35.721835 27.273459 2.268122 0.885295 0.915480 -11.810567 9.383611 -24.191946 22.275231 -23.998997 -17.472437 8.548847 7.927396 -3.344010 8.093323 -15.138286 -6.683600 -16.415586 -4.232989 12.715658 22.446426 2.241878 -7.858579 0.347824 -0.001665 0.287335 0.835094 -13.084556 1.992820 -0.412643 -6.704121 -21.296002 15.541757 13.615953 19.339781 -2.863744 -0.092153 -6.125795 
0.000000 0.000000 0.000000 -0.000000 0.000000 -0.000000 -5.761997 14.367827 4.275577 -1.822330 -0.653076 -0.976441 1.009900 1.289032 0.606484 -0.695913 1.193466 -0.438962 -0.479457 0.767422 -0.392227 0.025767 -2.092155 0.738947 0.168360 -4.010456 0.735341 5.520244 0.245462 1.922073 -10.794334 8.566457 4.922506 10.215899 12.847391 -8.163488 3.021372 32.012639 26.011032 1.744504 0.405447 0.816468 -10.874948 7.470789 -22.051278 19.701573 -20.593283 -15.676240 7.224884 7.151033 -3.049141 5.255889 -13.366859 -5.021900 -12.242241 -2.786833 9.532972 17.908640 3.697867 -6.257404 0.959561 0.021142 0.564992 0.073737 -10.320459 4.564302 -0.411827 -6.702819 -21.291108 13.761164 12.074866 17.322587 -2.205444 -0.100212 -5.127075 
0.000000 0.000000 0.000000 -0.000000 0.000000 -0.000000 -3.572910 10.078568 3.337974 -2.199340 -0.783809 -1.180266 0.815046 1.022942 0.359551 -0.542915 0.780249 -0.506075 -0.371258 0.484528 -0.405480 -0.001437 -1.620223 0.664530 0.067588 -3.119005 0.677646 4.848534 -0.128497 1.854198 -8.142800 5.160691 2.210045 9.621537 12.209325 -7.667741 4.102736 26.683338 23.433947 1.342328 0.128212 0.699720 -9.380690 6.007171 -18.954065 16.459870 -16.521130 -13.303669 5.914521 6.212653 -2.617449 3.385459 -10.417189 -3.432198 -8.177179 -1.623318 6.394809 12.718790 4.196248 -4.531474 1.574075 0.034452 1.079482 0.356891 -4.857897 6.596530 -0.415281 -6.716371 -21.335452 9.121925 8.252292 14.326928 0.113271 -0.061138 -1.883046 
0.000000 0.000000 0.000000 -0.000000 0.000000 -0.000000 -2.373098 6.403730 2.334760 -1.769224 -0.634535 -0.947771 0.669121 0.557869 0.203855 -0.358662 0.303567 -0.455103 -0.242083 0.167840 -0.333691 -0.112989 -1.055701 0.545185 -0.194334 -2.076291 0.524030 3.917524 -0.631042 1.743853 -6.127881 2.567029 -0.459285 7.907060 10.296768 -6.249813 6.786684 18.370318 18.026906 1.086994 -0.125293 0.654906 -7.654962 5.059255 -15.036624 12.855622 -12.301974 -10.545973 4.467216 5.048128 -2.157817 2.281647 -7.293623 -2.163900 -5.215937 -0.925758 4.089720 8.267427 3.737977 -2.956483 2.047257 0.034939 1.639902 0.235713 -1.051266 8.106705 -0.416442 -6.720995 -21.350639 6.071182 6.015567 12.465418 1.528921 0.014202 -0.289491 
0.000000 0.000000 0.000000 -0.000000 0.000000 -0.000000 -1.573237 3.781239 1.432774 -1.164716 -0.421401 -0.622376 0.571424 0.145504 0.115413 -0.107188 -0.084166 -0.315552 -0.068952 -0.081439 -0.207987 -0.122862 -0.516572 0.474129 -0.323011 -1.097839 0.532762 2.997519 -0.734544 1.433750 -5.354930 0.838721 -1.493761 5.838367 7.842067 -4.565031 6.748554 7.395506 8.166637 0.900358 -0.217834 0.585186 -5.804766 3.350846 -10.594378 8.785580 -7.944291 -7.309793 3.063794 3.598971 -1.471070 1.690253 -4.882068 -1.321927 -3.354380 -0.551258 2.633911 4.891435 3.011983 -2.017451 0.053331 -0.001982 0.067918 -0.024817 1.290986 9.084965 -0.421156 -6.739373 -21.410789 4.106808 4.797902 11.693917 -0.000001 0.000000 -0.000001 
0.000000 0.000000 0.000000 -0.000000 0.000000 -0.000000 -1.245583 2.637101 1.053176 -0.907814 -0.329754 -0.484574 0.480241 0.080238 0.101040 -0.038907 -0.099719 -0.227055 -0.023257 -0.084726 -0.146354 -0.044191 -0.343947 0.345745 -0.167057 -0.723067 0.423847 2.286669 -0.609622 1.100926 -4.344912 0.156049 -1.786176 4.486449 6.148255 -3.481203 5.537280 4.285942 5.102810 0.771730 -0.244883 0.522890 -4.547056 2.371176 -8.301120 6.709925 -5.889158 -5.618217 2.388477 2.865184 -1.139592 1.383740 -3.630748 -0.973144 -2.434764 -0.384357 1.913070 3.517322 2.476012 -1.465046 -0.034040 -0.001513 -0.012146 -0.079081 2.207748 9.480288 -0.422259 -6.743709 -21.424965 2.914676 4.271500 11.302513 -0.054332 -0.001309 0.005964 
0.000000 0.000000 0.000000 -0.000000 0.000000 -0.000000 -0.611698 0.937301 0.431081 -0.411185 -0.150375 -0.219027 0.230059 0.020090 0.091282 -0.014286 -0.051934 -0.045249 -0.008853 -0.038617 -0.026793 0.069559 -0.177285 0.032130 0.161969 -0.276796 0.029913 1.031590 -0.321170 0.504555 -2.046794 -0.414671 -1.571567 1.854612 2.641182 -1.415594 2.960309 1.535212 2.375268 0.382711 -0.224796 0.296766 -1.952451 0.900035 -3.857525 2.975188 -2.471475 -2.516417 1.126974 1.404007 -0.538107 0.635984 -1.468408 -0.390103 -0.871349 -0.127970 0.685360 1.400601 1.235367 -0.477792 0.008651 -0.001516 0.011025 0.203646 0.796425 3.020917 0.140849 -2.171147 -6.845183 1.319401 1.242536 3.523614 0.000000 -0.001303 0.005960 
